<?xml version="1.0" encoding="UTF-8"?>
<svg id="Layer_2" data-name="Layer 2" xmlns="http://www.w3.org/2000/svg" viewBox="0 0 35 35">
  <defs>
    <style>
      .cls-1 {
        fill: #03a9f4;
      }

      .cls-2 {
        fill: #020f16;
      }
    </style>
  </defs>
  <g id="container_grid" data-name="container grid">
    <g>
      <path class="cls-1" d="M0,3.89C0,1.74,1.74,0,3.89,0H31.11c2.15,0,3.89,1.74,3.89,3.89V31.11c0,2.15-1.74,3.89-3.89,3.89H3.89c-2.15,0-3.89-1.74-3.89-3.89V3.89Z"/>
      <path class="cls-2" d="M13.63,12.81h-1.95v4.31h1.92c.53,0,.94-.17,1.23-.52s.44-.85,.44-1.52-.15-1.24-.45-1.65-.7-.62-1.2-.62Z"/>
      <path class="cls-2" d="M2.92,2.92v29.17h29.17V2.92H2.92Zm13.97,15.35c-.8,.79-1.92,1.18-3.34,1.18h-1.86v4.86h-2.79V10.48h4.71c1.37,0,2.46,.42,3.27,1.27,.81,.85,1.22,1.95,1.22,3.3s-.4,2.42-1.21,3.21Zm9.06,5.39c-.69,.56-1.6,.84-2.72,.84-.75,0-1.42-.15-1.99-.44s-1.03-.7-1.35-1.23-.49-1.09-.49-1.7h2.55c.01,.47,.12,.82,.33,1.05s.54,.35,1.01,.35c.72,0,1.08-.33,1.08-.98,0-.23-.11-.44-.33-.63s-.7-.45-1.46-.78c-1.11-.45-1.87-.91-2.28-1.4s-.62-1.08-.62-1.79c0-.9,.32-1.64,.97-2.23,.65-.59,1.51-.88,2.58-.88,1.13,0,2.03,.29,2.71,.87,.68,.58,1.02,1.36,1.02,2.35h-2.69c0-.84-.35-1.25-1.04-1.25-.28,0-.52,.09-.7,.27s-.28,.42-.28,.74c0,.23,.1,.43,.3,.6s.68,.42,1.43,.75c1.1,.41,1.87,.86,2.32,1.35s.68,1.14,.68,1.93c0,.92-.35,1.66-1.03,2.21Z"/>
    </g>
  </g>
</svg>