<?xml version="1.0" encoding="UTF-8"?>
<svg id="Layer_2" data-name="Layer 2" xmlns="http://www.w3.org/2000/svg" viewBox="0 0 35 35">
  <defs>
    <style>
      .cls-1 {
        fill: #ff5722;
      }

      .cls-2 {
        fill: #1c0802;
      }
    </style>
  </defs>
  <g id="container_grid" data-name="container grid">
    <g>
      <g>
        <path class="cls-1" d="M0,3.89C0,1.74,1.74,0,3.89,0H31.11c2.15,0,3.89,1.74,3.89,3.89V31.11c0,2.15-1.74,3.89-3.89,3.89H3.89c-2.15,0-3.89-1.74-3.89-3.89V3.89Z"/>
        <path class="cls-2" d="M2.92,2.92v29.17h29.17V2.92H2.92Zm14.28,21.39l-.74-2.83h-3.81l-.74,2.83h-2.95l4.32-13.82h2.55l4.35,13.82h-2.98Zm6.96,0h-2.7V14.03h2.7v10.27Zm-.29-11.91c-.26,.27-.62,.41-1.07,.41s-.8-.14-1.07-.41-.39-.61-.39-1.03,.13-.76,.4-1.03,.62-.4,1.06-.4,.8,.13,1.06,.4,.4,.61,.4,1.03c0,.41-.13,.75-.39,1.03Z"/>
      </g>
      <path class="cls-2" d="M13.3,19.56h2.54l-1.27-4.85-1.27,4.85Z"/>
    </g>
  </g>
</svg>